# xmcd CD database file
# Copyright (C) 1993-1998 Ti Kan
#
# Track frame offsets:
#  200
#  15015
#  26617
#  39540
#  52867
#  63162
#  76647
#  89475
#  106415
#  121742
#  135332
#  147997
#
# Disc length: 2152 seconds
#
# Revision: 1
# Processed by: cddbd v1.4b41PL1 Copyright (c) Steve Scherf et al.
# Submitted via: CDWizzard Release:4.35
#
DISCID=8408660c
DTITLE=Doyle Lawson and Quicksilver - Merry Christmas From Our House To Y
DTITLE=ours
DYEAR=1900
DGENRE=
TTITLE0=Back To Tennessee
TTITLE1=When Was My Jesus Born
TTITLE2=I Wish We Could Keep Christmas Everyday
TTITLE3=Mary's Christmas
TTITLE4=Born Again Christmas
TTITLE5=Merry Christmas From Our House To Yours
TTITLE6=Christmas Lullaby
TTITLE7=A Christmas Letter
TTITLE8=I Feel The Christmas Spirit
TTITLE9=The Bethlehem Star
TTITLE10=A Very Merry Christmas
TTITLE11=Medley: The First Noel/It Came Upon A Midnight Clear/Joy To The 
TTITLE11=World
EXTD=
EXTT0=
EXTT1=
EXTT2=
EXTT3=
EXTT4=
EXTT5=
EXTT6=
EXTT7=
EXTT8=
EXTT9=
EXTT10=
EXTT11=
PLAYORDER=
